<?xml version="1.0" encoding="UTF-8"?>
<svg version="1.1" xmlns="http://www.w3.org/2000/svg" width="180" height="180">
<path d="M0 0 C59.4 0 118.8 0 180 0 C180 59.4 180 118.8 180 180 C120.6 180 61.2 180 0 180 C0 120.6 0 61.2 0 0 Z " fill="#344253" transform="translate(0,0)"/>
<path d="M0 0 C59.4 0 118.8 0 180 0 C180 59.4 180 118.8 180 180 C120.6 180 61.2 180 0 180 C0 120.6 0 61.2 0 0 Z M31.8125 39.1875 C17.90384439 55.63277518 12.65136503 75.73090265 14 97 C16.12151468 115.73120665 23.7061372 131.68289618 37 145 C37.61359375 145.62519531 38.2271875 146.25039062 38.859375 146.89453125 C52.94143611 160.2243455 72.55062562 166.56723392 91.6875 166.18359375 C112.39300387 165.03600096 130.26991796 157.73008204 145 143 C145.63679687 142.36320313 146.27359375 141.72640625 146.9296875 141.0703125 C157.37403237 129.88325866 165.87792478 112.60121375 166 97 C166.03738281 95.69160156 166.07476562 94.38320312 166.11328125 93.03515625 C166.27944772 85.13875053 166.18349551 77.64854497 164 70 C163.76667969 69.09507813 163.53335938 68.19015625 163.29296875 67.2578125 C157.10007181 45.93614907 142.62762504 31.15206469 123.63671875 20.69921875 C121.45620052 19.63565148 119.29152016 18.79721171 117 18 C115.99710937 17.63003906 114.99421875 17.26007812 113.9609375 16.87890625 C84.14963558 7.32739155 53.06862424 16.98574548 31.8125 39.1875 Z " fill="#E3E5E7" transform="translate(0,0)"/>
<path d="M0 0 C1.75292358 0.88981567 1.75292358 0.88981567 3.54125977 1.79760742 C4.77887203 2.43526101 6.0164198 3.07303979 7.25390625 3.7109375 C9.77030065 4.99450591 12.28935754 6.27280131 14.80859375 7.55078125 C15.72702812 8.01805382 15.72702812 8.01805382 16.66401672 8.49476624 C22.44217193 11.42556293 28.30247969 14.13403766 34.2265625 16.75390625 C38.47688479 18.93996945 38.47688479 18.93996945 39.81640625 21.0859375 C40.09480274 23.92378557 40.19452515 26.50343749 40.12890625 29.3359375 C40.11545166 30.14369629 40.10199707 30.95145508 40.08813477 31.78369141 C39.38710435 60.40487682 28.93755499 83.29789811 8.69140625 103.171875 C3.4656674 107.99725483 -2.90528874 113.54121962 -10.12890625 114.4609375 C-19.64984166 113.29212701 -28.58975563 103.56801565 -35.18359375 97.0859375 C-35.88226563 96.40015625 -36.5809375 95.714375 -37.30078125 95.0078125 C-50.69616876 80.9348373 -59.54938945 59.44185275 -60.18359375 40.0859375 C-60.21469238 39.35584473 -60.24579102 38.62575195 -60.27783203 37.87353516 C-60.3776308 35.31938887 -60.44143087 32.76642699 -60.49609375 30.2109375 C-60.52606445 29.37731689 -60.55603516 28.54369629 -60.58691406 27.68481445 C-60.64171586 21.82042675 -60.64171586 21.82042675 -58.74609375 18.78125 C-54.9901069 16.29634406 -51.01068588 14.58693116 -46.87109375 12.8359375 C-40.44199801 10.03817118 -34.14886658 7.13828508 -27.99609375 3.7734375 C-19.47720075 -0.84868336 -19.47720075 -0.84868336 -16.12109375 -2.4765625 C-15.49074219 -2.78722656 -14.86039063 -3.09789063 -14.2109375 -3.41796875 C-9.08246029 -4.67291404 -4.48049229 -2.29873235 0 0 Z " fill="#2AA9F6" transform="translate(100.18359375,31.9140625)"/>
<path d="M0 0 C11.92655076 10.26842059 19.41899543 22.23814583 24.5 37.0625 C24.85449219 38.03574219 25.20898438 39.00898437 25.57421875 40.01171875 C31.14237185 58.36078023 27.21151112 80.19404469 18.59375 96.86328125 C9.23411858 113.93660751 -4.94009931 125.8254045 -23.5 132.0625 C-24.32113281 132.34867188 -25.14226562 132.63484375 -25.98828125 132.9296875 C-31.81864569 134.83385007 -37.38323185 135.75800495 -43.5 136.0625 C-44.45261719 136.12695312 -45.40523438 136.19140625 -46.38671875 136.2578125 C-66.53565254 137.01624163 -85.69303078 129.64222493 -100.5 116.0625 C-101.20511719 115.43730469 -101.91023438 114.81210938 -102.63671875 114.16796875 C-115.97041848 101.69778481 -123.60873098 83.18852745 -124.60986328 65.07470703 C-124.8486339 56.59734667 -124.93656438 48.25241797 -122.5 40.0625 C-122.18160156 38.98742187 -121.86320312 37.91234375 -121.53515625 36.8046875 C-114.64455672 15.69207616 -101.1707783 0.88950329 -81.6875 -9.1875 C-55.29020675 -22.1234566 -23.17313478 -17.77908197 0 0 Z M-99.5 12.0625 C-99.5 12.7225 -99.5 13.3825 -99.5 14.0625 C-100.16 14.0625 -100.82 14.0625 -101.5 14.0625 C-114.3855062 31.13498428 -119.69528327 50.47206321 -117.19140625 71.67578125 C-116.74123905 73.85490922 -116.15535363 75.9364109 -115.5 78.0625 C-115.27828125 78.94679688 -115.0565625 79.83109375 -114.828125 80.7421875 C-109.81983226 98.55470036 -97.03113451 112.0053647 -81.31689453 121.08007812 C-64.933018 129.93908366 -46.47684046 131.36510242 -28.55859375 126.70068359 C-10.64635991 121.14772116 3.85516815 108.56313006 12.89453125 92.3046875 C17.42953822 83.14640091 20.2682567 74.28817291 20.5 64.0625 C20.561875 63.06992188 20.62375 62.07734375 20.6875 61.0546875 C21.41506647 42.54721543 14.23075065 26.10369614 2.515625 12.07421875 C0.57723164 9.84027396 0.57723164 9.84027396 -2.5 9.0625 C-2.5 8.4025 -2.5 7.7425 -2.5 7.0625 C-4.48987614 5.52946753 -6.4504302 4.16002344 -8.5625 2.8125 C-9.18648682 2.41353516 -9.81047363 2.01457031 -10.45336914 1.60351562 C-22.6401218 -5.93524508 -34.56799371 -9.11478071 -48.875 -9.125 C-49.76960938 -9.13724609 -50.66421875 -9.14949219 -51.5859375 -9.16210938 C-69.46495923 -9.2010898 -87.29505409 -1.02686229 -99.5 12.0625 Z " fill="#4D5E70" transform="translate(138.5,29.9375)"/>
<path d="M0 0 C1.75292358 0.88981567 1.75292358 0.88981567 3.54125977 1.79760742 C4.77887203 2.43526101 6.0164198 3.07303979 7.25390625 3.7109375 C9.77030065 4.99450591 12.28935754 6.27280131 14.80859375 7.55078125 C15.72702812 8.01805382 15.72702812 8.01805382 16.66401672 8.49476624 C22.44217193 11.42556293 28.30247969 14.13403766 34.2265625 16.75390625 C38.47688479 18.93996945 38.47688479 18.93996945 39.81640625 21.0859375 C40.09480274 23.92378557 40.19452515 26.50343749 40.12890625 29.3359375 C40.11545166 30.14369629 40.10199707 30.95145508 40.08813477 31.78369141 C39.38710435 60.40487682 28.93755499 83.29789811 8.69140625 103.171875 C3.4656674 107.99725483 -2.90528874 113.54121962 -10.12890625 114.4609375 C-19.64984166 113.29212701 -28.58975563 103.56801565 -35.18359375 97.0859375 C-35.88226563 96.40015625 -36.5809375 95.714375 -37.30078125 95.0078125 C-50.69616876 80.9348373 -59.54938945 59.44185275 -60.18359375 40.0859375 C-60.21469238 39.35584473 -60.24579102 38.62575195 -60.27783203 37.87353516 C-60.3776308 35.31938887 -60.44143087 32.76642699 -60.49609375 30.2109375 C-60.52606445 29.37731689 -60.55603516 28.54369629 -60.58691406 27.68481445 C-60.64171586 21.82042675 -60.64171586 21.82042675 -58.74609375 18.78125 C-54.9901069 16.29634406 -51.01068588 14.58693116 -46.87109375 12.8359375 C-40.44199801 10.03817118 -34.14886658 7.13828508 -27.99609375 3.7734375 C-19.47720075 -0.84868336 -19.47720075 -0.84868336 -16.12109375 -2.4765625 C-15.49074219 -2.78722656 -14.86039063 -3.09789063 -14.2109375 -3.41796875 C-9.08246029 -4.67291404 -4.48049229 -2.29873235 0 0 Z M-19.49609375 9.9609375 C-29.79652898 15.57552367 -40.46334557 20.33683913 -51.18359375 25.0859375 C-51.97009231 49.14696746 -46.25178096 71.8745028 -29.46044922 89.84570312 C-24.21436936 95.25938361 -18.44726139 99.91015907 -12.18359375 104.0859375 C-3.59736136 103.53060904 4.3337431 95.1408552 9.98828125 89.1875 C20.14727939 77.5089936 27.3451356 63.38225069 29.81640625 48.0859375 C30.04328125 46.8071875 30.27015625 45.5284375 30.50390625 44.2109375 C31.18789439 37.89088709 30.89082089 31.43598642 30.81640625 25.0859375 C29.88183594 24.69664063 28.94726562 24.30734375 27.984375 23.90625 C19.15477018 20.16604989 10.6410148 16.01868189 2.2019043 11.46337891 C-6.52877193 6.76075076 -10.44140233 4.91246973 -19.49609375 9.9609375 Z " fill="#E9F1F6" transform="translate(100.18359375,31.9140625)"/>
<path d="M0 0 C4.87010775 2.30223275 7.7638768 5.0977299 10 10 C10.32182432 14.35500974 10.23276462 18.64212915 10 23 C10.61875 23.268125 11.2375 23.53625 11.875 23.8125 C14 25 14 25 16 28 C16.43209306 31.44368564 16.32421584 34.90711118 16.3125 38.375 C16.32861328 39.32117188 16.34472656 40.26734375 16.36132812 41.2421875 C16.36752206 50.06235569 16.36752206 50.06235569 13 54 C7.96830106 58.68841681 1.61864141 57.51313173 -4.875 57.5 C-6.14214844 57.52835938 -7.40929687 57.55671875 -8.71484375 57.5859375 C-19.10872082 57.60779634 -19.10872082 57.60779634 -22.8203125 54.65625 C-26.85967023 49.73373521 -26.2508591 44.70690205 -26.3125 38.625 C-26.34150391 37.67882812 -26.37050781 36.73265625 -26.40039062 35.7578125 C-26.44102641 31.30663102 -26.433171 28.72344023 -24.10546875 24.8359375 C-22 23 -22 23 -20 23 C-20.04640625 22.13117188 -20.0928125 21.26234375 -20.140625 20.3671875 C-20.43646538 10.92142691 -20.43646538 10.92142691 -18.3125 6.4375 C-17.549375 5.633125 -16.78625 4.82875 -16 4 C-15.319375 3.21625 -14.63875 2.4325 -13.9375 1.625 C-9.39025114 -0.89049937 -5.07641098 -0.73160041 0 0 Z " fill="#F6FAFC" transform="translate(95,52)"/>
<path d="M0 0 C4.62 0 9.24 0 14 0 C14.268125 1.711875 14.53625 3.42375 14.8125 5.1875 C15.57369825 9.35800872 16.28386766 12.6319959 19 16 C24.04756757 19.36504504 29.94705999 18.36906613 35.875 18.375 C37.79505859 18.41173828 37.79505859 18.41173828 39.75390625 18.44921875 C41.60435547 18.45501953 41.60435547 18.45501953 43.4921875 18.4609375 C45.18384033 18.47326416 45.18384033 18.47326416 46.90966797 18.48583984 C50.68194557 17.89278941 52.32399485 16.67964185 55 14 C56.00259507 10.99221479 56.30314642 8.46179353 56.5625 5.3125 C56.706875 3.559375 56.85125 1.80625 57 0 C61.95 0 66.9 0 72 0 C71.54564165 6.11010256 70.25410772 10.406816 67.1875 15.6875 C66.59352417 16.72015991 66.59352417 16.72015991 65.98754883 17.77368164 C59.4209934 28.72973361 49.44589382 39.98633735 38 46 C30.04434954 45.82731921 22.66353999 37.83460526 17.25 32.625 C9.00517855 24.01276226 0 12.31049065 0 0 Z " fill="#1D99E9" transform="translate(54,90)"/>
<path d="M0 0 C2.66210014 1.22196567 5.20064142 2.62223153 7.75 4.0625 C14.7698628 7.94337442 21.89465839 11.26698115 29.37402344 14.17211914 C31.5625 15.078125 31.5625 15.078125 35 17 C36 19.734375 36 19.734375 36 22 C35.44054687 21.69707031 34.88109375 21.39414062 34.3046875 21.08203125 C29.34244236 18.48921828 24.4378211 16.4018435 19.125 14.625 C13.12914105 12.57412886 8.03287977 9.88641109 2.71875 6.453125 C-0.40100821 4.78566802 -2.45344701 4.08497416 -6 4 C-8.55433962 5.07966932 -10.70610912 6.15713414 -13.0625 7.5625 C-14.38503224 8.31028232 -15.70928625 9.05502685 -17.03515625 9.796875 C-17.69660645 10.17005859 -18.35805664 10.54324219 -19.03955078 10.92773438 C-23.88307866 13.57689682 -28.95712546 15.761831 -34 18 C-34.73347656 18.33 -35.46695313 18.66 -36.22265625 19 C-39.10653605 20.2735605 -41.90183448 21.3803669 -45 22 C-45 20.68 -45 19.36 -45 18 C-44.42258057 17.74420166 -43.84516113 17.48840332 -43.25024414 17.22485352 C-40.51820355 16.01022242 -37.7898214 14.78769187 -35.0625 13.5625 C-34.06863281 13.11672607 -33.07476562 12.67095215 -32.05078125 12.21166992 C-24.99135727 9.00608052 -18.13447407 5.55042343 -11.45727539 1.60571289 C-7.16320699 -0.81592614 -4.7141384 -1.55102481 0 0 Z " fill="#2C9ADF" transform="translate(94,39)"/>
<path d="M0 0 C2.875 1.875 2.875 1.875 5 5 C5.41588778 8.44818349 5.23299002 11.50514965 5 15 C-0.28 15 -5.56 15 -11 15 C-11.60714286 5.89285714 -11.60714286 5.89285714 -8.875 1.875 C-5.45264744 -0.35696906 -3.99977332 -0.83328611 0 0 Z " fill="#20A0F3" transform="translate(93,59)"/>
<path d="M0 0 C2.9375 0.75 2.9375 0.75 4.9375 2.75 C5.1875 5.25 5.1875 5.25 4.9375 7.75 C4.2775 8.41 3.6175 9.07 2.9375 9.75 C2.77072718 13.33343976 2.77072718 13.33343976 2.9375 16.75 C0.6275 16.75 -1.6825 16.75 -4.0625 16.75 C-4.18625 15.63625 -4.31 14.5225 -4.4375 13.375 C-4.7090813 9.71896323 -4.7090813 9.71896323 -7.0625 7.75 C-6.875 4.75 -6.875 4.75 -6.0625 1.75 C-3.0625 -0.25 -3.0625 -0.25 0 0 Z " fill="#324459" transform="translate(91.0625,83.25)"/>
<path d="M0 0 C2.875 1.875 2.875 1.875 5 5 C5.4072392 8.37647691 5.29556031 11.6174764 5 15 C4.67 15 4.34 15 4 15 C3.75585938 11.97265625 3.75585938 11.97265625 3.51171875 8.9453125 C3.12606964 6.60480784 3.12606964 6.60480784 0 5 C-3.96047946 4.66293792 -6.59677126 4.90570539 -10 7 C-9.6875 4.625 -9.6875 4.625 -9 2 C-5.48175489 -0.34549674 -4.14224306 -0.57991403 0 0 Z " fill="#309EE3" transform="translate(93,59)"/>
<path d="M0 0 C2 0.6875 2 0.6875 4 2.6875 C3.44444444 7.24305556 3.44444444 7.24305556 2 8.6875 C-0.4375 8.875 -0.4375 8.875 -3 8.6875 C-3.66 8.0275 -4.32 7.3675 -5 6.6875 C-4.75 3.625 -4.75 3.625 -4 0.6875 C-2 -0.3125 -2 -0.3125 0 0 Z " fill="#EDF8FC" transform="translate(119,61.3125)"/>
<path d="M0 0 C2.93453261 0.36681658 3.86437246 0.86437246 6 3 C5.44444444 7.55555556 5.44444444 7.55555556 4 9 C1.5625 9.25 1.5625 9.25 -1 9 C-3 6 -3 6 -2.75 3.9375 C-2 2 -2 2 0 0 Z " fill="#EDF8FC" transform="translate(60,61)"/>
<path d="M0 0 C4.55555556 0.55555556 4.55555556 0.55555556 6 2 C6.04080783 3.99958364 6.04254356 6.00045254 6 8 C3.125 8.625 3.125 8.625 0 9 C-2 7 -2 7 -2.25 4.5 C-2 2 -2 2 0 0 Z " fill="#F0F9FC" transform="translate(88,116)"/>
<path d="M0 0 C1.134375 0.020625 2.26875 0.04125 3.4375 0.0625 C3.4375 1.0525 3.4375 2.0425 3.4375 3.0625 C0.4375 4.0625 -2.5625 5.0625 -5.5625 6.0625 C-4.48849278 0.07874549 -4.48849278 0.07874549 0 0 Z " fill="#1D97E4" transform="translate(88.5625,59.9375)"/>
<path d="M0 0 C-1.28716647 1.00578589 -2.57988658 2.00446798 -3.875 3 C-4.95394531 3.8353125 -4.95394531 3.8353125 -6.0546875 4.6875 C-8 6 -8 6 -10 6 C-10 4.68 -10 3.36 -10 2 C-3.375 -1.125 -3.375 -1.125 0 0 Z " fill="#2393DC" transform="translate(59,55)"/>
<path d="M0 0 C1.2065625 0.0309375 1.2065625 0.0309375 2.4375 0.0625 C2.1075 1.0525 1.7775 2.0425 1.4375 3.0625 C-2.125 4.75 -2.125 4.75 -5.5625 6.0625 C-3.26136364 0.07954545 -3.26136364 0.07954545 0 0 Z " fill="#2095DF" transform="translate(77.5625,44.9375)"/>
<path d="M0 0 C2.97 0.99 5.94 1.98 9 3 C9 3.33 9 3.66 9 4 C6.03 4 3.06 4 0 4 C0 2.68 0 1.36 0 0 Z " fill="#369CDB" transform="translate(109,48)"/>
<path d="M0 0 C0.99 0.33 1.98 0.66 3 1 C2.67 2.32 2.34 3.64 2 5 C0.02 5.33 -1.96 5.66 -4 6 C-2.68 4.02 -1.36 2.04 0 0 Z " fill="#2294DE" transform="translate(89,38)"/>
</svg>
